<?xml version="1.0" encoding="UTF-8"?>
<svg width="158px" height="98px" viewBox="0 0 158 98" version="1.1" xmlns="http://www.w3.org/2000/svg" xmlns:xlink="http://www.w3.org/1999/xlink">
    <title>nav-illo_pricing_free-tier_120.c97a7bc66fe2ed5fe4ace6898dda6783872228e6</title>
    <g id="Page-1" stroke="none" stroke-width="1" fill="none" fill-rule="evenodd">
        <g id="Image-Classification-Webcam" transform="translate(-453.000000, -281.000000)" stroke="#AAB7B8">
            <g id="nav-illo_pricing_free-tier_120.c97a7bc66fe2ed5fe4ace6898dda6783872228e6" transform="translate(453.000000, 282.000000)">
                <g id="FreeTier">
                    <path d="M86.5958042,76.355986 L107.327972,64.3502955 C108.948087,63.3517025 110.912621,63.4031701 112.490501,64.4855455 C114.06838,65.5679208 115.023338,67.5191322 115.000418,69.613064 L115.000418,71.4404141 L78.6825175,92.4914877 C77.6235508,93.1139508 76.4489426,93.4397475 75.2566434,93.4417098 L57.3552448,91.2488896 C52.8927568,90.7165531 48.395821,90.6676034 43.9251748,91.1027016 L38.4244755,91.6326332 L38.4244755,75.6981399 C44.1342657,67.1095943 53.9937063,68.3887394 62.8881119,72.0434396 L63.1454545,72.1348071 L82.6391608,72.1348071 C84.7381246,72.1448693 86.4349837,74.0808993 86.434965,76.465627 L86.434965,76.5569945 C86.4349837,78.9417221 84.7381246,80.8777522 82.6391608,80.8878143 L63.3384615,80.8878143" id="Path" stroke-width="2"></path>
                    <rect id="Rectangle" stroke-width="2" x="33.2937063" y="67.1095943" width="5.13076923" height="28.8904057"></rect>
                    <polygon id="Path" stroke-width="2" points="60.572028 25.7566605 60.572028 13.3124061 51.0986014 7.0994156 41.6090909 13.3124061 41.6090909 25.7566605 51.0986014 31.969651"></polygon>
                    <polygon id="Path" stroke-width="2" stroke-linejoin="round" points="51.0986014 19.4523026 60.5076923 13.2758591 51.0986014 7.0994156 41.6734266 13.2758591"></polygon>
                    <polygon id="Path" opacity="0.25" points="50.986014 19.7264051 50.986014 32.2437535 41.6734266 26.1221306 41.6734266 13.6047821"></polygon>
                    <line x1="51.0181818" y1="19.5253966" x2="51.0181818" y2="31.969651" id="Path" stroke-width="2" stroke-linejoin="round"></line>
                    <line x1="8.92657343" y1="67.1095943" x2="0.788111888" y2="67.1095943" id="Path" stroke-width="2"></line>
                    <line x1="8.7979021" y1="82.1304124" x2="0.788111888" y2="82.1304124" id="Path" stroke-width="2"></line>
                    <line x1="28.6132867" y1="82.1304124" x2="10.6314685" y2="82.1304124" id="Path" stroke-width="2"></line>
                    <polygon id="Path" stroke-width="2" points="107.633566 19.360935 107.633566 6.93495408 98.1601399 0.703690099 88.6706294 6.93495408 88.6706294 19.360935 98.1601399 25.592199"></polygon>
                    <polygon id="Path" stroke-width="2" stroke-linejoin="round" points="98.1601399 13.0565771 107.569231 6.88013358 98.1601399 0.703690099 88.734965 6.88013358"></polygon>
                    <polygon id="Path" opacity="0.25" points="98.0475524 13.3489531 98.0475524 25.8663016 88.734965 19.7446786 88.734965 7.2090566"></polygon>
                    <line x1="98.0797203" y1="13.1296711" x2="98.0797203" y2="25.592199" id="Path" stroke-width="2" stroke-linejoin="round"></line>
                    <polyline id="Path" stroke-width="2" points="0.788111888 96 33.2937063 96 33.2937063 67.1095943 10.6314685 67.1095943"></polyline>
                    <polygon id="Path" stroke-width="2" stroke-linejoin="round" points="78.4251748 39.6810686 92.5146853 30.4346769 78.4251748 21.2065587 64.3517483 30.4346769"></polygon>
                    <polygon id="Path" opacity="0.25" points="78.2643357 39.7176156 78.2643357 58.4479546 64.3517483 49.2929304 64.3517483 30.5625914"></polygon>
                    <polygon id="Path" stroke-width="2" points="92.6111888 49.1101954 92.6111888 30.5077709 78.4251748 21.2065587 64.2552448 30.5077709 64.2552448 49.1101954 78.4251748 58.4114076"></polygon>
                    <line x1="70.4314685" y1="58.8682451" x2="70.4314685" y2="61.2255268" id="Path" stroke-width="2"></line>
                    <line x1="70.4314685" y1="62.8884154" x2="70.4314685" y2="65.5746201" id="Path" stroke-width="2"></line>
                    <line x1="87.2874126" y1="58.7037836" x2="87.2874126" y2="64.1310135" id="Path" stroke-width="2"></line>
                    <line x1="87.2874126" y1="65.7939022" x2="87.2874126" y2="68.4801069" id="Path" stroke-width="2"></line>
                    <polyline id="Path" stroke-width="2" points="92.6433566 55.1221773 92.6433566 56.821613 92.6433566 58.5393221 92.6433566 61.5544498"></polyline>
                    <polyline id="Path" stroke-width="2" points="64.013986 55.1221773 64.013986 56.821613 64.013986 58.5393221 64.013986 61.5544498"></polyline>
                    <line x1="78.3608392" y1="63.7289965" x2="78.3608392" y2="67.8770813" id="Path" stroke-width="2"></line>
                    <line x1="78.2965035" y1="39.4800601" x2="78.2965035" y2="58.2103991" id="Path" stroke-width="2"></line>
                </g>
                <path d="M9,47 C6.08686673,47.0039471 3.57854139,49.5122725 3,53" id="Path" stroke-width="2"></path>
                <path d="M39,37.7620587 C36.3910885,35.735213 32.930033,35.9301805 30.5064103,38.2405178 C28.462053,33.5530072 23.8783354,31.0959356 19.4362812,32.3064482 C14.994227,33.5169607 11.8607351,38.0770635 11.8685897,43.3195453 C11.8672621,44.5714256 12.0459473,45.8149678 12.3974359,47 C11.3665066,46.3112459 10.1926539,45.955187 9,45.9694727" id="Path" stroke-width="2"></path>
                <path d="M138,59 C136.485813,55.6759913 133.823302,53.2149875 130.648626,52.2050027 C127.473951,51.1950178 124.072285,51.7267765 121.256398,53.6732241 C120.715048,51.284952 118.817009,49.6162232 116.644193,49.6182391 C116.395456,49.5993218 116.145882,49.5993218 115.897146,49.6182391 C116.110496,48.8230159 116.225278,47.9979586 116.238189,47.1668163 C116.223772,44.095261 114.861971,41.2337449 112.606626,39.5359083 C110.351281,37.8380718 107.498871,37.5271053 105,38.7066429" id="Path" stroke-width="2"></path>
                <path d="M156.438734,52 C156.80368,50.8350818 156.993397,49.6092431 157,48.3734154 C157,42.1944463 152.57016,37.185402 147.105674,37.185402 C146.149393,37.1830875 145.198149,37.3419859 144.283306,37.656858 C143.384616,34.9117137 141.948261,32.4320809 140.081826,30.4036889 L138.349918,28.7535929 C137.522786,28.0617958 136.642641,27.4549522 135.719984,26.9403006 L132.512747,25.6165973 C131.11423,25.2077416 129.675588,25.0005905 128.231086,25 C124.539016,24.9881564 120.945238,26.3448349 118,28.8623905" id="Path" stroke-width="2"></path>
            </g>
        </g>
    </g>
</svg>