<?xml version="1.0" encoding="UTF-8"?>
<svg width="122px" height="79px" viewBox="0 0 122 79" version="1.1" xmlns="http://www.w3.org/2000/svg" xmlns:xlink="http://www.w3.org/1999/xlink">
    <title>nav-illo_Category-Customer-Enablement_120.c33cec6cfa2e18333b440e2a776106d99e70f8b3</title>
    <g id="Page-1" stroke="none" stroke-width="1" fill="none" fill-rule="evenodd" stroke-linecap="round" stroke-linejoin="round">
        <g id="Image-Classification-Webcam" transform="translate(-185.000000, -291.000000)" stroke="#AAB7B8" stroke-width="2">
            <g id="nav-illo_Category-Customer-Enablement_120.c33cec6cfa2e18333b440e2a776106d99e70f8b3" transform="translate(186.000000, 292.000000)">
                <circle id="Oval" cx="60.5" cy="31.5" r="9.5"></circle>
                <path d="M77,61 L77,61 C77,49.37 69.752171,40 60.9098196,40 C54.1693387,40 48.4021376,45.4 46,53.08" id="Path"></path>
                <polyline id="Path" points="50.6195201 63.7245743 60.0050514 69 88 53.2524606 88 21.7573817 60.0050514 6 32 21.7573817 32 53.2524606 37.0413134 56.0771754"></polyline>
                <polygon id="Path" points="98 71.7547275 98 63.2452725 90.5 59 83 63.2452725 83 71.7547275 90.5 76"></polygon>
                <polygon id="Path" points="108 53.7476376 108 45.2523624 100.5 41 93 45.2523624 93 53.7476376 100.5 58"></polygon>
                <polygon id="Path" points="120 71.7547275 120 63.2452725 112.504817 59 105 63.2452725 105 71.7547275 112.504817 76"></polygon>
                <polygon id="Path" points="22 4.24527253 22 12.7547275 29.504817 17 37 12.7547275 37 4.24527253 29.504817 0"></polygon>
                <polygon id="Path" points="12 23.2452725 12 31.7452725 19.495183 36 27 31.7452725 27 23.2452725 19.495183 19"></polygon>
                <polygon id="Path" points="0 4.24527253 0 12.7547275 7.5 17 15 12.7547275 15 4.24527253 7.5 0"></polygon>
                <line x1="44.5" y1="56" x2="44.5" y2="66" id="Path"></line>
                <line x1="48" y1="60.5" x2="38" y2="60.5" id="Path"></line>
                <line x1="30.5" y1="61" x2="30.5" y2="67" id="Path"></line>
                <line x1="33" y1="63.5" x2="27" y2="63.5" id="Path"></line>
                <line x1="40.5" y1="72" x2="40.5" y2="77" id="Path"></line>
                <line x1="43" y1="73.5" x2="38" y2="73.5" id="Path"></line>
            </g>
        </g>
    </g>
</svg>